<?xml version="1.0" encoding="UTF-8"?>
<svg version="1.1" xmlns="http://www.w3.org/2000/svg" width="345" height="122">
<path d="M0 0 C3.28385089 1.39920603 5.03439449 2.97511543 7.25 5.75 C14.06957694 13.71092873 22.85087078 18.34296892 31.8046875 23.5546875 C57.50652925 38.51958774 57.50652925 38.51958774 62 52 C63.15640386 69.59250468 57.85208822 81.13238281 49 96 C48.39800781 97.01707031 47.79601563 98.03414063 47.17578125 99.08203125 C43.55861111 104.97574204 39.46959156 110.30270513 35.015625 115.58984375 C33.26741718 117.68023954 31.61077702 119.80302248 30 122 C29.01 121.67 28.02 121.34 27 121 C27.58007812 120.10539062 28.16015625 119.21078125 28.7578125 118.2890625 C30.80276083 115.12948568 32.83101544 111.95949374 34.85449219 108.78613281 C35.81066051 107.29522756 36.78235646 105.81429533 37.7578125 104.3359375 C43.55009223 95.26844201 49.01496044 83.99592698 47 73 C43.79276286 62.06352057 33.32111722 56.79867395 24.31005859 51.06738281 C12.85859843 43.77065316 12.85859843 43.77065316 9 40 C9 39.34 9 38.68 9 38 C8.01 37.67 7.02 37.34 6 37 C4.2109375 34.92578125 4.2109375 34.92578125 2.375 32.3125 C1.45847656 31.03826172 1.45847656 31.03826172 0.5234375 29.73828125 C-1.12858475 26.76887715 -1.63622383 24.35755574 -2 21 C-1.43925781 21.71671875 -0.87851563 22.4334375 -0.30078125 23.171875 C7.44390404 32.69165794 15.46870359 38.86315991 26.02978516 44.85986328 C35.60012168 50.39808776 44.24995959 56.07183153 51 65 C50.32744807 59.28330863 47.6904202 55.48166348 43.40625 51.7265625 C42.4471875 51.03304687 41.488125 50.33953125 40.5 49.625 C39.44296875 48.85800781 38.3859375 48.09101562 37.296875 47.30078125 C33.16850869 44.3950465 28.96066485 41.61068866 24.74609375 38.83203125 C17.75309011 34.16671303 10.87492108 29.03811333 5 23 C5 22.34 5 21.68 5 21 C4.34 21 3.68 21 3 21 C1.45703125 18.8828125 1.45703125 18.8828125 -0.1875 16.125 C-0.73792969 15.22007813 -1.28835937 14.31515625 -1.85546875 13.3828125 C-2.42201172 12.20332031 -2.42201172 12.20332031 -3 11 C-2.67 10.34 -2.34 9.68 -2 9 C-1.46632813 9.6290625 -0.93265625 10.258125 -0.3828125 10.90625 C0.36226562 11.7621875 1.10734375 12.618125 1.875 13.5 C2.95394531 14.75296875 2.95394531 14.75296875 4.0546875 16.03125 C11.10698427 23.49532168 19.6946581 28.86452762 28.5 34 C39.19618201 40.23825262 49.11321682 46.47385985 56 57 C54.66316475 48.5970356 49.88158205 43.3736688 43.25 38.3125 C38.8579572 35.18303461 34.3599378 32.36381056 29.703125 29.65234375 C18.17308024 22.60435396 6.09325816 14.47946142 0 2 C0 1.34 0 0.68 0 0 Z M57 59 C58 63 58 63 58 63 Z " fill="#EBD26F" transform="translate(9,0)"/>
<path d="M0 0 C0 1.65 0 3.3 0 5 C2.31 5 4.62 5 7 5 C6.67 3.68 6.34 2.36 6 1 C7.32 0.67 8.64 0.34 10 0 C10 1.32 10 2.64 10 4 C10.99 4 11.98 4 13 4 C13 3.01 13 2.02 13 1 C16.57474725 -0.13916302 19.78539382 -0.03150662 23.515625 0.12109375 C24.76601563 0.16943359 26.01640625 0.21777344 27.3046875 0.26757812 C28.60664063 0.32365234 29.90859375 0.37972656 31.25 0.4375 C33.22613281 0.51581055 33.22613281 0.51581055 35.2421875 0.59570312 C38.49503428 0.72534557 41.74757167 0.86031156 45 1 C44.67 4.63 44.34 8.26 44 12 C46.58119071 10.26877535 46.58119071 10.26877535 49 8 C49 6.68 49 5.36 49 4 C48.34 4 47.68 4 47 4 C47 3.01 47 2.02 47 1 C48.65 1.33 50.3 1.66 52 2 C52 2.66 52 3.32 52 4 C53.32 2.68 54.64 1.36 56 0 C56.99 0.33 57.98 0.66 59 1 C58.67 1.763125 58.34 2.52625 58 3.3125 C56.82563314 5.99069135 56.82563314 5.99069135 57 9 C59.97 8.505 59.97 8.505 63 8 C63 8.66 63 9.32 63 10 C64.98 10 66.96 10 69 10 C67.02 9.01 65.04 8.02 63 7 C63.33 5.35 63.66 3.7 64 2 C71.38461538 -0.21538462 71.38461538 -0.21538462 74.5 0.875 C74.995 1.24625 75.49 1.6175 76 2 C76 2.66 76 3.32 76 4 C73.69 4.33 71.38 4.66 69 5 C71.31 5.66 73.62 6.32 76 7 C76 8.65 76 10.3 76 12 C69.15193514 14.77183578 62.20964833 14.12311105 55 13 C54.01 12.34 53.02 11.68 52 11 C51.34 11 50.68 11 50 11 C50 11.66 50 12.32 50 13 C47.29120665 14.35439668 44.99066732 14.06501451 42 14 C40.79727181 11.59454362 40.89928528 10.05003047 40.9375 7.375 C40.94652344 6.55773438 40.95554687 5.74046875 40.96484375 4.8984375 C40.97644531 4.27195312 40.98804688 3.64546875 41 3 C38.69 3.33 36.38 3.66 34 4 C34.020625 5.093125 34.04125 6.18625 34.0625 7.3125 C34 11 34 11 33 14 C32.34 14 31.68 14 31 14 C31 10.7 31 7.4 31 4 C26.71 4 22.42 4 18 4 C20.64 4.33 23.28 4.66 26 5 C26 6.65 26 8.3 26 10 C19.79310345 14.13793103 19.79310345 14.13793103 16.125 13.5 C13.6058356 11.72176631 13.56437244 10.91592425 13 8 C12.01 7.67 11.02 7.34 10 7 C9.67 9.31 9.34 11.62 9 14 C8.34 14 7.68 14 7 14 C6.67 12.02 6.34 10.04 6 8 C4.02 8 2.04 8 0 8 C0 9.98 0 11.96 0 14 C-0.99 13.67 -1.98 13.34 -3 13 C-4.125 5.25 -4.125 5.25 -3 3 C-5.64 3.33 -8.28 3.66 -11 4 C-11 7.3 -11 10.6 -11 14 C-11.99 14 -12.98 14 -14 14 C-14 10.7 -14 7.4 -14 4 C-15.65 4 -17.3 4 -19 4 C-19 3.01 -19 2.02 -19 1 C-16.39590255 0.83218705 -13.7917318 0.66570349 -11.1875 0.5 C-10.08051758 0.42845703 -10.08051758 0.42845703 -8.95117188 0.35546875 C-5.96175412 0.16609387 -2.99625426 0 0 0 Z M17 8 C17.33 8.99 17.66 9.98 18 11 C19.32 10.34 20.64 9.68 22 9 C22 8.67 22 8.34 22 8 C20.35 8 18.7 8 17 8 Z " fill="#000000" transform="translate(269,54)"/>
<path d="M0 0 C0.56074219 0.71671875 1.12148437 1.4334375 1.69921875 2.171875 C9.44390404 11.69165794 17.46870359 17.86315991 28.02978516 23.85986328 C51.21576331 37.27727567 51.21576331 37.27727567 55 49 C57.316631 59.92126044 56.37455693 67.43476533 50.32470703 76.87695312 C48.92289538 78.94991174 47.47685257 80.97993159 46 83 C45.53964355 83.63550781 45.07928711 84.27101563 44.60498047 84.92578125 C41.83874697 88.70288771 38.95657376 92.36911994 36 96 C34.66611156 97.66622243 33.33259114 99.33273985 32 101 C30.515 100.505 30.515 100.505 29 100 C29.58007812 99.10539062 30.16015625 98.21078125 30.7578125 97.2890625 C32.80276083 94.12948568 34.83101544 90.95949374 36.85449219 87.78613281 C37.81066051 86.29522756 38.78235646 84.81429533 39.7578125 83.3359375 C45.55009223 74.26844201 51.01496044 62.99592698 49 52 C45.79276286 41.06352057 35.32111722 35.79867395 26.31005859 30.06738281 C14.85859843 22.77065316 14.85859843 22.77065316 11 19 C11 18.34 11 17.68 11 17 C10.01 16.67 9.02 16.34 8 16 C6.2109375 13.92578125 6.2109375 13.92578125 4.375 11.3125 C3.76398437 10.46300781 3.15296875 9.61351562 2.5234375 8.73828125 C0.87141525 5.76887715 0.36377617 3.35755574 0 0 Z " fill="#D5A947" transform="translate(7,21)"/>
<path d="M0 0 C0.33 1.65 0.66 3.3 1 5 C12.88 6.485 12.88 6.485 25 8 C25 8.66 25 9.32 25 10 C22.14619655 10.19629336 19.29232606 10.38226546 16.4375 10.5625 C15.63763672 10.61857422 14.83777344 10.67464844 14.01367188 10.73242188 C9.15845373 11.02968013 4.78889489 10.86778632 0 10 C1.93787096 30.72382008 5.53395582 46.15259759 21 61 C14.73512975 60.60844561 10.30190239 56.35885668 6.10546875 52.05859375 C-2.43168241 41.95908813 -5.20471119 30.03340029 -5.0625 17.125 C-5.05798828 16.34125 -5.05347656 15.5575 -5.04882812 14.75 C-5.03714093 12.83329986 -5.01920908 10.91663952 -5 9 C-5.99 8.67 -6.98 8.34 -8 8 C-8.3125 5.6875 -8.3125 5.6875 -8 3 C-5.13896577 0.75756777 -3.65923696 0 0 0 Z " fill="#D4A741" transform="translate(8,54)"/>
<path d="M0 0 C3.28385089 1.39920603 5.03439449 2.97511543 7.25 5.75 C14.06413979 13.70458159 22.83496814 18.33694987 31.78515625 23.5390625 C48.52218842 33.28011286 48.52218842 33.28011286 52 38 C51.8125 40.8125 51.8125 40.8125 51 43 C47.38171514 41.71181482 44.75684553 40.2027006 41.8125 37.75 C38.74977761 35.29679966 35.71030793 33.14906346 32.3125 31.1875 C19.90076182 23.92634272 6.49685691 15.3060627 0 2 C0 1.34 0 0.68 0 0 Z " fill="#AE802D" transform="translate(9,0)"/>
<path d="M0 0 C0.33 0.99 0.66 1.98 1 3 C-1.97 3 -4.94 3 -8 3 C-8 3.66 -8 4.32 -8 5 C-5.03 5 -2.06 5 1 5 C1 5.99 1 6.98 1 8 C4.37097383 9.49821059 6.20442119 10 10 10 C7.69 8.68 5.38 7.36 3 6 C3.33 4.68 3.66 3.36 4 2 C12.03571429 -0.27678571 12.03571429 -0.27678571 16 1 C16 1.99 16 2.98 16 4 C14.02 4.33 12.04 4.66 10 5 C13.465 6.485 13.465 6.485 17 8 C16.875 9.875 16.875 9.875 16 12 C11.57075605 14.32535308 7.91826479 14.00872065 3.1484375 13.2890625 C0.10407659 12.87945758 -2.57677693 12.89677486 -5.5625 13.625 C-8 14 -8 14 -11 12 C-11.65779647 8.23262021 -12 4.81234486 -12 1 C-8.0186217 -0.3271261 -4.14954773 -0.06915913 0 0 Z M-8 8 C-7.67 8.99 -7.34 9.98 -7 11 C-5.68 10.34 -4.36 9.68 -3 9 C-3 8.67 -3 8.34 -3 8 C-4.65 8 -6.3 8 -8 8 Z " fill="#000000" transform="translate(233,54)"/>
<path d="M0 0 C4.05849062 1.50314467 6.73802583 4.39930642 9 8 C10.96825725 12.70878211 11.38521679 17.13756907 11.375 22.1875 C11.37483887 22.93201416 11.37467773 23.67652832 11.37451172 24.44360352 C11.2311573 31.42647292 10.12127902 38.87872098 5 44 C3.37799485 42.37799485 3.8700925 40.57976969 3.8671875 38.34375 C3.86589844 37.40402344 3.86460938 36.46429688 3.86328125 35.49609375 C3.86714844 34.50738281 3.87101562 33.51867187 3.875 32.5 C3.87113281 31.51128906 3.86726563 30.52257812 3.86328125 29.50390625 C3.86457031 28.56417969 3.86585937 27.62445313 3.8671875 26.65625 C3.86831543 25.78806641 3.86944336 24.91988281 3.87060547 24.02539062 C4 22 4 22 5 21 C4.76633334 15.39200007 3.01514208 11.8850517 -0.0390625 7.2109375 C-1.25251437 4.41901166 -0.8363497 2.87180319 0 0 Z M6 21 C7 25 7 25 7 25 Z " fill="#F2E280" transform="translate(60,38)"/>
<path d="M0 0 C1.7492214 -0.08142927 3.49954542 -0.13938541 5.25 -0.1875 C6.22453125 -0.22230469 7.1990625 -0.25710937 8.203125 -0.29296875 C11.37468742 0.03924798 12.67040307 0.88672279 15 3 C14.67 3.99 14.34 4.98 14 6 C11.9375 6.6875 11.9375 6.6875 10 7 C10 7.66 10 8.32 10 9 C13.63 9 17.26 9 21 9 C21 9.99 21 10.98 21 12 C14.77720535 13.2008902 11.6094242 12.97642917 6 10 C5.67 9.67 5.34 9.34 5 9 C4.34 10.32 3.68 11.64 3 13 C2.34 12.67 1.68 12.34 1 12 C0.32585108 7.88769156 0 4.16980357 0 0 Z M4 3 C5.98 3.99 5.98 3.99 8 5 C8.99 4.34 9.98 3.68 11 3 C8.69 3 6.38 3 4 3 Z " fill="#000000" transform="translate(98,55)"/>
<path d="M0 0 C0.55558594 0.71414062 1.11117188 1.42828125 1.68359375 2.1640625 C8.20378133 10.14661931 14.81326581 16.48720021 23.98046875 21.26953125 C26 23 26 23 26.30078125 26.19921875 C26.20152344 27.12347656 26.10226563 28.04773438 26 29 C21.95264468 27.59983383 19.01519578 25.6818763 15.6875 23 C14.80449219 22.29875 13.92148437 21.5975 13.01171875 20.875 C12.34785156 20.25625 11.68398438 19.6375 11 19 C11 18.34 11 17.68 11 17 C10.01 16.67 9.02 16.34 8 16 C6.2109375 13.92578125 6.2109375 13.92578125 4.375 11.3125 C3.76398437 10.46300781 3.15296875 9.61351562 2.5234375 8.73828125 C0.87141525 5.76887715 0.36377617 3.35755574 0 0 Z " fill="#EAE084" transform="translate(7,21)"/>
<path d="M0 0 C2.78644831 2.06993303 5.01911297 4.02402773 7.1875 6.75 C11.57888619 12.22533594 17.55331787 16.66370853 23.625 20.125 C24.40875 20.74375 25.1925 21.3625 26 22 C26.375 25.25 26.375 25.25 26 28 C19.288994 24.14738544 13.37031856 19.60141833 8 14 C8 13.34 8 12.68 8 12 C7.34 12 6.68 12 6 12 C4.4921875 9.8828125 4.4921875 9.8828125 2.875 7.125 C2.33617187 6.22007813 1.79734375 5.31515625 1.2421875 4.3828125 C0 2 0 2 0 0 Z " fill="#F3EB90" transform="translate(6,9)"/>
<path d="M0 0 C2.23528551 1.21897166 4.46275173 2.44955316 6.6875 3.6875 C7.31333984 4.02716797 7.93917969 4.36683594 8.58398438 4.71679688 C12.66077417 7.00065294 15.92345734 9.40281166 19 13 C18.8125 15.3125 18.8125 15.3125 18 17 C13.7766954 16.08575973 10.40047214 14.11573696 6.75 11.875 C6.1003125 11.50890625 5.450625 11.1428125 4.78125 10.765625 C2.921875 9.6171875 2.921875 9.6171875 0 7 C-0.421875 3.1953125 -0.421875 3.1953125 0 0 Z " fill="#AE7F2C" transform="translate(32,31)"/>
<path d="M0 0 C0.33 0.99 0.66 1.98 1 3 C-1.64 3.33 -4.28 3.66 -7 4 C-4.36 4.33 -1.72 4.66 1 5 C0.875 7.8125 0.875 7.8125 0 11 C-2.84356406 12.95889969 -4.76324992 14.03435417 -8.25 13.9375 C-10.73706086 12.60514597 -11.1651911 11.71312894 -12 9 C-12.15438208 6.30860582 -12.09002536 3.70076077 -12 1 C-8.0186217 -0.3271261 -4.14954773 -0.06915913 0 0 Z M-8 8 C-7.67 8.99 -7.34 9.98 -7 11 C-5.68 10.67 -4.36 10.34 -3 10 C-3 9.34 -3 8.68 -3 8 C-4.65 8 -6.3 8 -8 8 Z " fill="#000000" transform="translate(199,54)"/>
<path d="M0 0 C1.65 0.33 3.3 0.66 5 1 C5.33 2.65 5.66 4.3 6 6 C7.32 6 8.64 6 10 6 C9.443125 6.86625 9.443125 6.86625 8.875 7.75 C7.70833333 10 7.70833333 10 8.875 12.25 C9.24625 12.8275 9.6175 13.405 10 14 C7.525 13.505 7.525 13.505 5 13 C4.67 11.68 4.34 10.36 4 9 C-2.12622469 11.20966933 -2.12622469 11.20966933 -8 14 C-7.41068228 10.64825544 -6.30386572 8.91304802 -4 6.4375 C-1.88166863 4.15112792 -1.01082314 3.03246941 0 0 Z M1 5 C1 5.66 1 6.32 1 7 C1.66 6.67 2.32 6.34 3 6 C2.34 5.67 1.68 5.34 1 5 Z " fill="#000000" transform="translate(153,54)"/>
<path d="M0 0 C0.99 0.33 1.98 0.66 3 1 C2.67 5.29 2.34 9.58 2 14 C1.01 14 0.02 14 -1 14 C-1 13.01 -1 12.02 -1 11 C-1.78375 10.690625 -2.5675 10.38125 -3.375 10.0625 C-6 9 -6 9 -8 8 C-8.66 9.98 -9.32 11.96 -10 14 C-10.66 14 -11.32 14 -12 14 C-12 9.71 -12 5.42 -12 1 C-7.22620248 2.19344938 -5.61425291 3.79645765 -2 7 C-1.34 4.69 -0.68 2.38 0 0 Z " fill="#000000" transform="translate(176,54)"/>
<path d="M0 0 C5.23890086 -0.31433405 8.52833673 0.19221144 13 3 C15 6 15 6 14.625 8.1875 C14.41875 8.785625 14.2125 9.38375 14 10 C12.21089097 10.52955234 10.41860852 11.0483937 8.625 11.5625 C7.12839844 11.99755859 7.12839844 11.99755859 5.6015625 12.44140625 C3 13 3 13 1 12 C1.33 9.36 1.66 6.72 2 4 C1.34 3.67 0.68 3.34 0 3 C0 2.01 0 1.02 0 0 Z M6 3 C5.67 4.98 5.34 6.96 5 9 C6.98 8.67 8.96 8.34 11 8 C10.20882096 6.00016466 10.20882096 6.00016466 9 4 C8.01 3.67 7.02 3.34 6 3 Z " fill="#000000" transform="translate(131,55)"/>
<path d="M0 0 C4.6959013 -0.32385526 7.16309076 -0.41084636 11.4375 1.6875 C14.22067989 4.19915015 14.79570164 5.3226295 15 9 C12.20387283 10.86408478 10.62830652 11.48836118 7.4375 12.1875 C6.25994141 12.45626953 6.25994141 12.45626953 5.05859375 12.73046875 C3 13 3 13 1 12 C1.66 9.03 2.32 6.06 3 3 C2.01 2.67 1.02 2.34 0 2 C0 1.34 0 0.68 0 0 Z M6 3 C6 4.98 6 6.96 6 9 C7.98 8.34 9.96 7.68 12 7 C9.94766315 4.7522025 8.99332739 3.9977758 6 3 Z " fill="#000000" transform="translate(82,55)"/>
<path d="M0 0 C4.12934281 1.52938622 7.16168096 4.00914936 9 8 C9.48099295 12.98125241 9.14936286 17.89445565 8.8125 22.875 C8.73912511 24.24466462 8.66813787 25.61445935 8.59960938 26.984375 C8.42317081 30.32494523 8.22253875 33.66223623 8 37 C7.67 37 7.34 37 7 37 C6.96261719 35.94941406 6.92523438 34.89882812 6.88671875 33.81640625 C6.47800763 24.41829006 5.78715778 16.42448789 0.75 8.25 C-1 5 -1 5 -0.75 2.0625 C-0.5025 1.381875 -0.255 0.70125 0 0 Z " fill="#F6EC8C" transform="translate(60,38)"/>
<path d="M0 0 C4.68187876 1.31981745 8.00374921 3.19795672 11.875 6.125 C13.32519531 7.21167969 13.32519531 7.21167969 14.8046875 8.3203125 C15.89136719 9.15175781 15.89136719 9.15175781 17 10 C16.34 11.65 15.68 13.3 15 15 C11.66883245 13.38200433 8.44350068 11.62554802 5.25 9.75 C4.26515625 9.18796875 3.2803125 8.6259375 2.265625 8.046875 C0 6 0 6 -0.328125 2.765625 C-0.21984375 1.85296875 -0.1115625 0.9403125 0 0 Z " fill="#AC7C2B" transform="translate(33,45)"/>
<path d="M0 0 C3.28385089 1.39920603 5.03439449 2.97511543 7.25 5.75 C11.13319311 10.35447735 15.58061567 14.29030783 21 17 C21 18.98 21 20.96 21 23 C11.97890425 18.58542123 4.35532327 11.12648141 0 2 C0 1.34 0 0.68 0 0 Z " fill="#F0E88D" transform="translate(9,0)"/>
<path d="M0 0 C2.62527189 -0.05382106 5.24944713 -0.09358313 7.875 -0.125 C8.62136719 -0.14175781 9.36773437 -0.15851563 10.13671875 -0.17578125 C12.09194461 -0.1933959 14.04742021 -0.10320189 16 0 C18 2 18 2 18 5 C14.61494922 7.04242247 11.92471691 7.29778231 8 7.3125 C6.453125 7.33763672 6.453125 7.33763672 4.875 7.36328125 C1.68988032 6.96081368 0.34266462 6.13430263 -2 4 C-1.34 2.68 -0.68 1.36 0 0 Z M1 2 C1 2.66 1 3.32 1 4 C7.17119802 5.1911235 7.17119802 5.1911235 13 3 C9.04 2.67 5.08 2.34 1 2 Z " fill="#AC8336" transform="translate(25,91)"/>
<path d="M0 0 C1.2989839 0.90626784 2.58893167 1.82549537 3.875 2.75 C4.59429687 3.26046875 5.31359375 3.7709375 6.0546875 4.296875 C8.12127528 6.10617675 9.06279826 7.43288218 10 10 C9.625 12.75 9.625 12.75 9 15 C4.07019047 12.99155908 0.90596617 9.35894926 -2 5 C-1.125 2.3125 -1.125 2.3125 0 0 Z " fill="#DBAE49" transform="translate(51,43)"/>
<path d="M0 0 C4.54007065 2.00607773 7.90794454 4.06465669 11 8 C10.8125 10.8125 10.8125 10.8125 10 13 C5.3617008 11.49937379 2.34150152 9.50062064 -1 6 C-0.875 2.6875 -0.875 2.6875 0 0 Z " fill="#DBAD48" transform="translate(50,30)"/>
<path d="M0 0 C0.99 0 1.98 0 3 0 C2.67 3.3 2.34 6.6 2 10 C5.63 10 9.26 10 13 10 C13 10.66 13 11.32 13 12 C9.98509443 13.00496852 7.95818308 13.10335303 4.8125 13.0625 C3.91144531 13.05347656 3.01039063 13.04445313 2.08203125 13.03515625 C1.39496094 13.02355469 0.70789063 13.01195313 0 13 C-0.83796731 8.34462607 -1.0161692 4.62921525 0 0 Z " fill="#000000" transform="translate(202,54)"/>
<path d="M0 0 C3.35925824 3.35925824 3.12874927 6.54083303 3.13671875 11.11132812 C3.13285156 11.87896484 3.12898438 12.64660156 3.125 13.4375 C3.12886719 14.20126953 3.13273437 14.96503906 3.13671875 15.75195312 C3.13478516 16.86280273 3.13478516 16.86280273 3.1328125 17.99609375 C3.13168457 18.66825928 3.13055664 19.3404248 3.12939453 20.03295898 C2.99199609 22.12167459 2.56530559 23.98830925 2 26 C1.34 26 0.68 26 0 26 C0 17.42 0 8.84 0 0 Z " fill="#F8F39C" transform="translate(68,47)"/>
<path d="M0 0 C0.474375 0.639375 0.94875 1.27875 1.4375 1.9375 C4.41250834 5.49299778 7.7316666 8.51935746 11.171875 11.62109375 C13.45913487 14.59746396 13.35855952 16.33531082 13 20 C12.34 19.67 11.68 19.34 11 19 C11 18.34 11 17.68 11 17 C10.01 16.67 9.02 16.34 8 16 C6.2109375 13.92578125 6.2109375 13.92578125 4.375 11.3125 C3.76398437 10.46300781 3.15296875 9.61351562 2.5234375 8.73828125 C0.87141525 5.76887715 0.36377617 3.35755574 0 0 Z " fill="#DAB550" transform="translate(7,21)"/>
<path d="M0 0 C6.6 0.66 13.2 1.32 20 2 C20 2.66 20 3.32 20 4 C17.04196565 4.19421438 14.08379837 4.38066186 11.125 4.5625 C10.28324219 4.61857422 9.44148438 4.67464844 8.57421875 4.73242188 C7.76855469 4.78076172 6.96289062 4.82910156 6.1328125 4.87890625 C5.38918457 4.9260376 4.64555664 4.97316895 3.87939453 5.02172852 C2 5 2 5 0 4 C0 2.68 0 1.36 0 0 Z " fill="#E9D87A" transform="translate(13,60)"/>
<path d="M0 0 C4.49163845 1.98217958 7.32034216 4.91921387 10 9 C10.375 11.9375 10.375 11.9375 10 14 C5.3478325 10.80994228 2.53009634 6.97406173 0 2 C0 1.34 0 0.68 0 0 Z " fill="#DCB956" transform="translate(9,0)"/>
<path d="M0 0 C0.99 0 1.98 0 3 0 C3 3.96 3 7.92 3 12 C2.01 12.33 1.02 12.66 0 13 C-1.25069801 10.49860398 -1.13302467 8.72607309 -1.125 5.9375 C-1.12757813 5.03902344 -1.13015625 4.14054687 -1.1328125 3.21484375 C-1 1 -1 1 0 0 Z " fill="#000000" transform="translate(182,55)"/>
<path d="M0 0 C2.31 0 4.62 0 7 0 C7 0.99 7 1.98 7 3 C4.03 2.505 4.03 2.505 1 2 C1 2.66 1 3.32 1 4 C3.97 4.495 3.97 4.495 7 5 C7 5.66 7 6.32 7 7 C3.85375007 7.26218749 2.38162983 7.24754367 -0.3125 5.5 C-0.869375 5.005 -1.42625 4.51 -2 4 C-1.34 2.68 -0.68 1.36 0 0 Z " fill="#E8DC83" transform="translate(25,91)"/>
<path d="M0 0 C0.70125 0.721875 1.4025 1.44375 2.125 2.1875 C4.92770745 4.99823813 7.92262792 7.49516226 11 10 C8 11 8 11 5.95703125 10.21484375 C3.78834935 8.92311519 1.85722909 7.71436532 0 6 C-0.5 2.6875 -0.5 2.6875 0 0 Z " fill="#F2E88B" transform="translate(18,104)"/>
<path d="M0 0 C0.66 0 1.32 0 2 0 C4.84450614 3.71973879 5.3227506 6.37390802 5 11 C0.125 7.375 0.125 7.375 -1 4 C-0.5625 1.8125 -0.5625 1.8125 0 0 Z " fill="#E3C864" transform="translate(13,98)"/>
<path d="M0 0 C1.32 0.66 2.64 1.32 4 2 C4 4.64 4 7.28 4 10 C1 9 1 9 -0.25 7.25 C-1.17574966 4.47275102 -0.77341204 2.78428335 0 0 Z " fill="#E9CC69" transform="translate(60,38)"/>
<path d="M0 0 C3.56527647 2.67395735 6.45499893 5.32388734 9 9 C9 9.99 9 10.98 9 12 C8.01 12 7.02 12 6 12 C4.39453125 9.8828125 4.39453125 9.8828125 2.8125 7.125 C2.01779297 5.76761719 2.01779297 5.76761719 1.20703125 4.3828125 C0 2 0 2 0 0 Z " fill="#D9B34F" transform="translate(6,9)"/>
<path d="M0 0 C2.97 1.98 2.97 1.98 6 4 C5.67 5.65 5.34 7.3 5 9 C2.5 7.3125 2.5 7.3125 0 5 C-0.3125 2.25 -0.3125 2.25 0 0 Z " fill="#F6EF96" transform="translate(20,36)"/>
<path d="M0 0 C2.5 1.625 2.5 1.625 5 4 C5.3125 7.25 5.3125 7.25 5 10 C4.34 9.67 3.68 9.34 3 9 C3 8.34 3 7.68 3 7 C2.01 6.67 1.02 6.34 0 6 C-1 3 -1 3 0 0 Z " fill="#E8D370" transform="translate(15,31)"/>
<path d="M0 0 C2.5 1.1875 2.5 1.1875 5 3 C5.3125 5.6875 5.3125 5.6875 5 8 C2.525 7.01 2.525 7.01 0 6 C0 4.02 0 2.04 0 0 Z " fill="#CBB25A" transform="translate(30,18)"/>
<path d="M0 0 C1.485 0.99 1.485 0.99 3 2 C2.67 5.63 2.34 9.26 2 13 C-1 9 -1 9 -1.07421875 6.640625 C-0.94660156 5.85171875 -0.81898437 5.0628125 -0.6875 4.25 C-0.56761719 3.45078125 -0.44773438 2.6515625 -0.32421875 1.828125 C-0.21722656 1.22484375 -0.11023437 0.6215625 0 0 Z " fill="#F0DF7C" transform="translate(64,41)"/>
<path d="M0 0 C1.32 0.33 2.64 0.66 4 1 C4 3.31 4 5.62 4 8 C2.68 7.34 1.36 6.68 0 6 C0 4.02 0 2.04 0 0 Z " fill="#B6933F" transform="translate(33,45)"/>
<path d="M0 0 C1.98 0.99 1.98 0.99 4 2 C4 4.31 4 6.62 4 9 C2.68 8.34 1.36 7.68 0 7 C0 4.69 0 2.38 0 0 Z " fill="#BFA049" transform="translate(32,31)"/>
<path d="M0 0 C1.32 0.66 2.64 1.32 4 2 C4 3.98 4 5.96 4 8 C2.35 6.68 0.7 5.36 -1 4 C-0.67 2.68 -0.34 1.36 0 0 Z " fill="#E7D06C" transform="translate(15,19)"/>
<path d="M0 0 C0.33 0 0.66 0 1 0 C1.33 3.3 1.66 6.6 2 10 C1.01 10 0.02 10 -1 10 C-2.46726798 6.18510326 -1.43336419 3.70988378 0 0 Z " fill="#E7C663" transform="translate(61,52)"/>
<path d="M0 0 C1.98 0.99 1.98 0.99 4 2 C4 3.98 4 5.96 4 8 C2.68 7.34 1.36 6.68 0 6 C0 4.02 0 2.04 0 0 Z " fill="#DCCC72" transform="translate(28,29)"/>
<path d="M0 0 C1.32 0.66 2.64 1.32 4 2 C4 3.65 4 5.3 4 7 C2.35 5.35 0.7 3.7 -1 2 C-0.67 1.34 -0.34 0.68 0 0 Z " fill="#E7D06C" transform="translate(15,7)"/>
<path d="M0 0 C0.99 0.33 1.98 0.66 3 1 C3 2.98 3 4.96 3 7 C2.01 6.67 1.02 6.34 0 6 C0 4.02 0 2.04 0 0 Z " fill="#D2BC64" transform="translate(30,43)"/>
</svg>
